<?xml version="1.0" encoding="UTF-8" standalone="no"?>
<svg
   width="454"
   height="340"
   overflow="hidden"
   version="1.1"
   id="svg17"
   sodipodi:docname="WPP logo 20240907 BlackOnTransparent.svg"
   inkscape:version="1.1.1 (3bf5ae0d25, 2021-09-20)"
   xmlns:inkscape="http://www.inkscape.org/namespaces/inkscape"
   xmlns:sodipodi="http://sodipodi.sourceforge.net/DTD/sodipodi-0.dtd"
   xmlns="http://www.w3.org/2000/svg"
   xmlns:svg="http://www.w3.org/2000/svg">
  <sodipodi:namedview
     id="namedview19"
     pagecolor="#ffffff"
     bordercolor="#666666"
     borderopacity="1.0"
     inkscape:pageshadow="2"
     inkscape:pageopacity="0.0"
     inkscape:pagecheckerboard="0"
     showgrid="false"
     inkscape:zoom="2.5676471"
     inkscape:cx="226.86139"
     inkscape:cy="170"
     inkscape:window-width="2560"
     inkscape:window-height="1369"
     inkscape:window-x="-8"
     inkscape:window-y="-8"
     inkscape:window-maximized="1"
     inkscape:current-layer="svg17" />
  <defs
     id="defs5">
    <clipPath
       id="clip0">
      <rect
         x="0"
         y="0"
         width="454"
         height="340"
         id="rect2" />
    </clipPath>
  </defs>
  <path
     d="m 34.2794,53.6605 c 0,-11.4395 -1.8174,-20.713 9.4784,-20.713 H 155.497 c 11.296,0 6.485,14.0728 6.485,25.5122 -9.561,82.3443 -21.117,196.9203 -26.688,237.9203 -1.745,11.439 -7.411,10.882 -18.707,10.882 L 79.6741,307.51 C 56.6557,306.764 34.0301,286.8 34.0301,261.934 33.8638,191.101 34.4458,124.494 34.2794,53.6605 Z"
     stroke="#000000"
     stroke-width="2.00221"
     stroke-miterlimit="8"
     fill="#0d0d0d"
     fill-rule="evenodd"
     id="path9" />
  <path
     d="m 321.972,40.0667 c 0.736,-5.9079 4.874,-7.1192 8.969,-7.1192 l 81.63,0.3327 c 4.095,0 7.415,3.3735 7.415,7.5349 0.165,73.2459 -1.16,145.9929 -0.995,219.2389 0,20.13 -14.505,46.708 -45.447,47.207 l -73.129,0.249 c -4.095,0 -7.415,-3.373 -7.415,-7.535 z"
     stroke="#000000"
     stroke-width="2.00221"
     stroke-miterlimit="8"
     fill="#0d0d0d"
     fill-rule="evenodd"
     id="path11" />
  <path
     d="m 173.65933,43.7649 c 0,-5.9742 4.859,-10.8174 10.852,-10.8174 h 115.636 c 5.994,0 10.853,4.8432 10.853,10.8174 l -28.002,253.4261 c 0,5.974 -5.192,10.319 -11.186,10.319 h -121.969 c -5.994,0 -3.186,-6.837 -3.186,-12.811 z"
     stroke="#000000"
     stroke-width="2.00221"
     stroke-miterlimit="8"
     fill="#0d0d0d"
     fill-rule="evenodd"
     id="path13" />
</svg>
